<?xml version="1.0" encoding="utf-8"?>
<!-- Generator: Adobe Illustrator 24.0.0, SVG Export Plug-In . SVG Version: 6.00 Build 0)  -->
<svg version="1.1" id="图层_1" xmlns="http://www.w3.org/2000/svg" xmlns:xlink="http://www.w3.org/1999/xlink" x="0px" y="0px"
	 viewBox="0 0 32 32" style="enable-background:new 0 0 32 32;" xml:space="preserve">
<style type="text/css">
	.st0{fill:#111111;}
	.st1{fill:#EB6B13;}
</style>
<g>
	<rect x="28.7" y="0" class="st0" width="3.24" height="3.14"/>
	<path class="st0" d="M21.32,8.12v-4.6h-7.17C6.35,3.52,0,9.87,0,17.67L0,31.9h4.6V17.67c0-5.26,4.28-9.55,9.55-9.55H21.32z"/>
	<path class="st1" d="M8.89,19.51v4.01h4.54v0h0.14c2.46,0,4.46-2,4.46-4.46h-4.52c0.22-1.83,1.78-3.25,3.67-3.25h6.59v1.95
		c0,5.26-4.28,9.55-9.55,9.55H8.88v4.6h5.35c7.8,0,14.15-6.35,14.15-14.15v-6.55H17.19C12.61,11.21,8.89,14.93,8.89,19.51z"/>
	<rect x="23.6" y="3.53" class="st0" width="4.73" height="4.59"/>
</g>
</svg>
